<svg viewBox="0 0 440 160" xmlns="http://www.w3.org/2000/svg">
  
  <g stroke="#111111" stroke-width="9" stroke-linecap="round" fill="none">
    <line x1="20" y1="80" x2="20" y2="100"></line>
    <line x1="38" y1="70" x2="38" y2="110"></line>
    <line x1="56" y1="52" x2="56" y2="128"></line>
    <line x1="74" y1="34" x2="74" y2="146"></line>
    <line x1="92" y1="20" x2="92" y2="160"></line>
    <line x1="110" y1="34" x2="110" y2="146"></line>
    <line x1="128" y1="52" x2="128" y2="128"></line>
    <line x1="146" y1="68" x2="146" y2="112"></line>
  </g>
  <path d="M146,90 C185,90 195,58 228,58 C262,58 268,96 302,98 C326,99 332,124 356,124 C378,124 392,108 386,88 C381,72 360,70 357,88 C354,105 373,113 392,102" stroke="#111111" stroke-width="9" stroke-linecap="round" stroke-linejoin="round" fill="none"></path>
</svg>